<svg version="1.1" viewBox="0.0 0.0 667.6640419947506 661.9842519685039" fill="none" stroke="none" stroke-linecap="square" stroke-miterlimit="10" xmlns:xlink="http://www.w3.org/1999/xlink" xmlns="http://www.w3.org/2000/svg"><clipPath id="p.0"><path d="m0 0l667.66406 0l0 661.98425l-667.66406 0l0 -661.98425z" clip-rule="nonzero"/></clipPath><g clip-path="url(#p.0)"><path fill="#000000" fill-opacity="0.0" d="m0 0l667.66406 0l0 661.98425l-667.66406 0z" fill-rule="evenodd"/><path fill="#000000" fill-opacity="0.0" d="m333.8035 604.11926l-272.1416 -136.07089l0 -278.09448l272.1416 -136.07086l272.14163 136.07086l0 278.09448z" fill-rule="evenodd"/><path stroke="#be204c" stroke-width="24.0" stroke-linejoin="round" stroke-linecap="butt" d="m333.8035 604.11926l-272.1416 -136.07089l0 -278.09448l272.1416 -136.07086l272.14163 136.07086l0 278.09448z" fill-rule="evenodd"/><path fill="#000000" fill-opacity="0.0" d="m61.661903 466.56036l272.1575 -140.25198" fill-rule="evenodd"/><path stroke="#ff006d" stroke-width="16.0" stroke-linejoin="round" stroke-linecap="butt" d="m61.661903 466.56036l272.1575 -140.25198" fill-rule="evenodd"/><path fill="#000000" fill-opacity="0.0" d="m333.80432 604.11926l0 -272.03152" fill-rule="evenodd"/><path stroke="#ff006d" stroke-width="16.0" stroke-linejoin="round" stroke-linecap="butt" d="m333.80432 604.11926l0 -272.03152" fill-rule="evenodd"/><path fill="#000000" fill-opacity="0.0" d="m332.67404 333.18115l273.29135 133.3858" fill-rule="evenodd"/><path stroke="#ff006d" stroke-width="16.0" stroke-linejoin="round" stroke-linecap="butt" d="m332.67404 333.18115l273.29135 133.3858" fill-rule="evenodd"/><path fill="#000000" fill-opacity="0.0" d="m605.9467 191.44257l-270.99213 136.0315" fill-rule="evenodd"/><path stroke="#ff006d" stroke-width="16.0" stroke-linejoin="round" stroke-linecap="butt" d="m605.9467 191.44257l-270.99213 136.0315" fill-rule="evenodd"/><path fill="#000000" fill-opacity="0.0" d="m61.661903 191.44257l269.88977 136.0315" fill-rule="evenodd"/><path stroke="#ff006d" stroke-width="16.0" stroke-linejoin="round" stroke-linecap="butt" d="m61.661903 191.44257l269.88977 136.0315" fill-rule="evenodd"/><path fill="#000000" fill-opacity="0.0" d="m333.80432 53.883667l-1.1338806 272.44095" fill-rule="evenodd"/><path stroke="#ff006d" stroke-width="16.0" stroke-linejoin="round" stroke-linecap="butt" d="m333.80432 53.883667l-1.1338806 272.44095" fill-rule="evenodd"/><path fill="#e7245b" d="m270.66287 330.88977l0 0c0 -32.18039 28.019226 -58.26773 62.582672 -58.26773l0 0c34.563446 0 62.582672 26.087341 62.582672 58.26773l0 0c0 32.18036 -28.019226 58.2677 -62.582672 58.2677l0 0c-34.563446 0 -62.582672 -26.087341 -62.582672 -58.2677z" fill-rule="evenodd"/><path stroke="#ff006d" stroke-width="1.0" stroke-linejoin="round" stroke-linecap="butt" d="m270.66287 330.88977l0 0c0 -32.18039 28.019226 -58.26773 62.582672 -58.26773l0 0c34.563446 0 62.582672 26.087341 62.582672 58.26773l0 0c0 32.18036 -28.019226 58.2677 -62.582672 58.2677l0 0c-34.563446 0 -62.582672 -26.087341 -62.582672 -58.2677z" fill-rule="evenodd"/><path fill="#be204c" d="m-1.6850393E-4 190.09184l0 0c0 -32.180374 28.019218 -58.267715 62.582676 -58.267715l0 0c34.563457 0 62.582676 26.087341 62.582676 58.267715l0 0c0 32.180374 -28.019218 58.267715 -62.582676 58.267715l0 0c-34.563457 0 -62.582676 -26.087341 -62.582676 -58.267715z" fill-rule="evenodd"/><path stroke="#be204c" stroke-width="1.0" stroke-linejoin="round" stroke-linecap="butt" d="m-1.6850393E-4 190.09184l0 0c0 -32.180374 28.019218 -58.267715 62.582676 -58.267715l0 0c34.563457 0 62.582676 26.087341 62.582676 58.267715l0 0c0 32.180374 -28.019218 58.267715 -62.582676 58.267715l0 0c-34.563457 0 -62.582676 -26.087341 -62.582676 -58.267715z" fill-rule="evenodd"/><path fill="#e7245b" d="m-1.6850393E-4 468.08258l0 0c0 -32.18036 28.019218 -58.2677 62.582676 -58.2677l0 0c34.563457 0 62.582676 26.087341 62.582676 58.2677l0 0c0 32.18039 -28.019218 58.2677 -62.582676 58.2677l0 0c-34.563457 0 -62.582676 -26.08731 -62.582676 -58.2677z" fill-rule="evenodd"/><path stroke="#ff006d" stroke-width="1.0" stroke-linejoin="round" stroke-linecap="butt" d="m-1.6850393E-4 468.08258l0 0c0 -32.18036 28.019218 -58.2677 62.582676 -58.2677l0 0c34.563457 0 62.582676 26.087341 62.582676 58.2677l0 0c0 32.18039 -28.019218 58.2677 -62.582676 58.2677l0 0c-34.563457 0 -62.582676 -26.08731 -62.582676 -58.2677z" fill-rule="evenodd"/><path fill="#e7245b" d="m274.3115 58.266502l0 0c0 -32.18037 26.637299 -58.267715 59.496063 -58.267715l0 0c15.779327 0 30.912384 6.138902 42.07007 17.06622c11.157684 10.927317 17.425995 25.747938 17.425995 41.2015l0 0c0 32.180374 -26.637299 58.267715 -59.496063 58.267715l0 0c-32.858765 0 -59.496063 -26.087341 -59.496063 -58.267715z" fill-rule="evenodd"/><path stroke="#ff006d" stroke-width="1.0" stroke-linejoin="round" stroke-linecap="butt" d="m274.3115 58.266502l0 0c0 -32.18037 26.637299 -58.267715 59.496063 -58.267715l0 0c15.779327 0 30.912384 6.138902 42.07007 17.06622c11.157684 10.927317 17.425995 25.747938 17.425995 41.2015l0 0c0 32.180374 -26.637299 58.267715 -59.496063 58.267715l0 0c-32.858765 0 -59.496063 -26.087341 -59.496063 -58.267715z" fill-rule="evenodd"/><path fill="#be204c" d="m271.23096 603.513l0 0c0 -32.18036 28.019226 -58.2677 62.582703 -58.2677l0 0c34.563446 0 62.582672 26.087341 62.582672 58.2677l0 0c0 32.18042 -28.019226 58.26776 -62.582672 58.26776l0 0c-34.563477 0 -62.582703 -26.087341 -62.582703 -58.26776z" fill-rule="evenodd"/><path stroke="#be204c" stroke-width="1.0" stroke-linejoin="round" stroke-linecap="butt" d="m271.23096 603.513l0 0c0 -32.18036 28.019226 -58.2677 62.582703 -58.2677l0 0c34.563446 0 62.582672 26.087341 62.582672 58.2677l0 0c0 32.18042 -28.019226 58.26776 -62.582672 58.26776l0 0c-34.563477 0 -62.582703 -26.087341 -62.582703 -58.26776z" fill-rule="evenodd"/><path fill="#e7245b" d="m542.4621 468.08258l0 0c0 -32.18036 28.019226 -58.2677 62.582703 -58.2677l0 0c34.563477 0 62.58264 26.087341 62.58264 58.2677l0 0c0 32.18039 -28.019165 58.2677 -62.58264 58.2677l0 0c-34.563477 0 -62.582703 -26.08731 -62.582703 -58.2677z" fill-rule="evenodd"/><path stroke="#ff006d" stroke-width="1.0" stroke-linejoin="round" stroke-linecap="butt" d="m542.4621 468.08258l0 0c0 -32.18036 28.019226 -58.2677 62.582703 -58.2677l0 0c34.563477 0 62.58264 26.087341 62.58264 58.2677l0 0c0 32.18039 -28.019165 58.2677 -62.58264 58.2677l0 0c-34.563477 0 -62.582703 -26.08731 -62.582703 -58.2677z" fill-rule="evenodd"/><path fill="#be204c" d="m542.4621 190.09184l0 0c0 -32.180374 28.019226 -58.267715 62.582703 -58.267715l0 0c34.563477 0 62.58264 26.087341 62.58264 58.267715l0 0c0 32.180374 -28.019165 58.267715 -62.58264 58.267715l0 0c-34.563477 0 -62.582703 -26.087341 -62.582703 -58.267715z" fill-rule="evenodd"/><path stroke="#be204c" stroke-width="1.0" stroke-linejoin="round" stroke-linecap="butt" d="m542.4621 190.09184l0 0c0 -32.180374 28.019226 -58.267715 62.582703 -58.267715l0 0c34.563477 0 62.58264 26.087341 62.58264 58.267715l0 0c0 32.180374 -28.019165 58.267715 -62.58264 58.267715l0 0c-34.563477 0 -62.582703 -26.087341 -62.582703 -58.267715z" fill-rule="evenodd"/></g></svg>