<?xml version="1.0" standalone="no"?>
<!DOCTYPE svg PUBLIC "-//W3C//DTD SVG 20010904//EN"
 "http://www.w3.org/TR/2001/REC-SVG-20010904/DTD/svg10.dtd">
<svg version="1.0" xmlns="http://www.w3.org/2000/svg"
 width="668.000000pt" height="668.000000pt" viewBox="0 0 668.000000 668.000000"
 preserveAspectRatio="xMidYMid meet">
<metadata>
Created by potrace 1.11, written by Peter Selinger 2001-2013
</metadata>
<g transform="translate(0.000000,668.000000) scale(0.100000,-0.100000)"
fill="#000000" stroke="none">
<path d="M3180 6635 c-14 -7 -27 -12 -30 -10 -11 7 -154 -73 -203 -115 -140
-118 -214 -289 -204 -473 l5 -88 -820 -409 -819 -409 -26 25 c-57 57 -189 134
-257 151 -223 54 -388 31 -563 -79 -50 -32 -120 -98 -172 -164 -19 -24 -53
-98 -71 -157 -13 -42 -20 -91 -20 -152 0 -169 48 -284 170 -406 81 -80 177
-138 275 -163 l50 -12 0 -814 0 -814 -57 -17 c-100 -29 -187 -80 -264 -154
-41 -38 -74 -75 -74 -82 0 -6 -4 -13 -8 -15 -11 -4 -71 -128 -75 -153 -1 -11
-6 -25 -9 -31 -9 -13 -4 -228 6 -269 3 -16 23 -64 43 -105 74 -154 250 -287
428 -323 104 -22 266 -14 350 17 95 35 188 91 242 144 l31 32 56 -30 c31 -16
56 -26 56 -23 0 3 6 1 13 -5 20 -17 147 -82 147 -75 0 3 6 1 13 -5 12 -10 457
-236 467 -237 3 0 16 -7 30 -15 35 -19 284 -144 290 -145 3 0 16 -7 30 -15 14
-7 137 -69 273 -138 228 -113 248 -126 242 -145 -14 -49 -17 -189 -5 -250 34
-171 172 -342 340 -419 87 -41 187 -59 293 -55 56 2 118 7 137 10 34 6 160 55
170 66 3 3 16 12 30 20 50 27 106 75 148 127 46 56 114 182 106 195 -2 4 0 10
5 14 5 3 10 13 10 23 0 9 3 50 7 90 4 44 2 97 -5 133 -10 47 -10 64 0 75 6 8
14 12 17 9 3 -3 12 1 21 9 9 8 19 15 23 16 9 1 145 66 168 80 8 5 42 22 75 37
33 15 63 32 66 36 3 5 9 9 12 8 7 0 139 63 167 79 8 5 188 95 400 201 212 105
389 193 393 196 4 2 66 33 137 68 l129 64 41 -38 c61 -56 165 -114 250 -141
78 -24 241 -33 322 -17 228 44 428 222 485 434 4 15 8 82 8 148 0 172 -33 255
-155 388 -61 67 -214 156 -293 171 -15 2 -31 7 -35 10 -14 8 -11 1627 2 1631
233 57 416 224 471 430 23 89 19 237 -10 319 -63 180 -200 312 -397 382 -98
34 -307 38 -388 7 -8 -3 -21 -7 -29 -9 -22 -4 -158 -73 -173 -87 -7 -7 -32
-29 -55 -49 l-42 -37 -613 307 c-337 168 -615 307 -618 307 -3 0 -16 7 -30 15
-14 7 -104 53 -200 100 l-176 87 2 99 c5 217 -89 396 -266 509 -118 76 -163
88 -335 91 -93 2 -137 -1 -155 -11z m-286 -959 c97 -101 200 -159 325 -182 14
-3 28 -7 31 -9 4 -2 5 -287 4 -632 -2 -345 -3 -697 -4 -780 0 -149 -1 -153
-21 -153 -88 0 -265 -88 -353 -176 l-38 -38 -426 215 c-235 118 -428 217 -430
222 -2 4 -8 7 -14 7 -9 0 -464 226 -668 332 -56 29 -84 49 -81 59 2 8 10 37
17 64 20 71 24 183 9 254 -9 45 -10 63 -1 69 11 7 1588 799 1595 801 2 1 27
-23 55 -53z m1749 -350 c439 -219 800 -402 802 -406 3 -4 0 -22 -6 -40 -12
-34 -16 -172 -7 -230 3 -19 12 -54 20 -77 15 -41 15 -43 -6 -56 -11 -7 -380
-193 -819 -412 l-798 -400 -29 32 c-73 81 -222 159 -340 179 -19 3 -37 8 -40
11 -3 2 -5 353 -5 779 l0 775 25 5 c14 3 32 8 40 11 8 3 26 7 40 9 30 6 93 35
101 47 3 5 10 8 14 6 13 -4 119 79 160 126 22 25 42 44 45 43 3 -2 365 -182
803 -402z m-2962 -1216 c294 -148 654 -329 801 -402 236 -117 267 -135 262
-153 -3 -11 -12 -45 -21 -75 -24 -87 -24 -199 1 -290 7 -24 0 -29 -111 -87
-211 -109 -374 -193 -608 -313 -126 -65 -309 -159 -405 -209 -96 -50 -236
-121 -310 -158 -74 -38 -136 -71 -138 -75 -9 -19 -42 -4 -82 37 -24 25 -50 45
-57 45 -7 0 -13 4 -13 9 0 4 -26 22 -57 38 -57 30 -89 42 -168 62 l-40 10 1
806 c0 443 4 808 8 812 3 4 12 8 19 9 56 8 212 72 227 93 3 3 19 15 35 25 17
11 45 36 63 57 18 21 39 36 46 33 8 -3 254 -126 547 -274z m3910 241 c43 -44
104 -88 164 -119 55 -27 165 -63 176 -56 11 7 11 73 11 -834 1 -457 -3 -786
-8 -790 -5 -5 -31 -14 -59 -21 -101 -25 -209 -86 -280 -160 -22 -22 -44 -41
-49 -41 -5 0 -81 35 -170 79 -162 79 -398 194 -756 369 -107 52 -308 150 -447
218 l-252 123 10 33 c6 18 12 40 14 48 2 8 8 29 12 45 15 51 7 185 -16 255
-11 35 -17 68 -13 72 6 6 1611 816 1620 817 2 1 21 -17 43 -38z m-2625 -1486
c80 -53 201 -99 282 -107 10 -1 12 -161 10 -781 -3 -684 -5 -780 -18 -783 -15
-2 -46 -9 -85 -18 -77 -17 -180 -74 -248 -136 -21 -19 -44 -38 -51 -42 -18
-10 -1621 793 -1621 812 0 8 5 30 11 49 17 51 9 205 -15 275 -18 56 -18 61 -3
72 18 13 82 46 467 244 132 67 299 153 370 190 72 38 198 102 280 145 83 42
154 80 160 86 5 5 15 9 22 9 8 0 19 5 26 10 7 6 65 37 130 70 l119 59 54 -59
c30 -32 80 -75 110 -95z m1116 -4 c135 -65 254 -122 266 -125 12 -4 22 -12 22
-17 0 -5 5 -9 12 -9 6 0 68 -28 137 -61 69 -34 232 -113 361 -176 632 -308
596 -289 580 -308 -32 -38 -46 -263 -21 -328 6 -16 9 -32 7 -36 -3 -4 -367
-188 -811 -410 l-806 -403 -47 44 c-26 24 -76 61 -111 81 -64 38 -225 92 -242
81 -5 -3 -9 317 -9 779 l0 785 38 7 c50 9 114 31 176 60 60 29 82 44 150 107
28 26 52 48 53 48 1 0 111 -53 245 -119z"/>
</g>
</svg>
